<svg xmlns="http://www.w3.org/2000/svg" viewBox="0 0 301.63 301.63"><defs><style>.cls-1{fill:#0076ff;stroke:#0076ff;stroke-miterlimit:10;}.cls-2{fill:#fff;}</style></defs><g id="Слой_2" data-name="Слой 2"><g id="Слой_1-2" data-name="Слой 1"><rect class="cls-1" x="0.5" y="0.5" width="300.63" height="300.63" rx="92.09"/><path class="cls-2" d="M219.6,187.64q0,26.1-18.79,41.13t-52.27,15q-30.85,0-54.58-11.6v-.74a26,26,0,0,1,32.75-25l.27.07a97.88,97.88,0,0,0,24.72,3.56q13.45,0,20.64-5.14t7.18-15.29a16.9,16.9,0,0,0-3.16-10.09,35.39,35.39,0,0,0-9.3-8.5q-6.13-4.09-25-13.05-17.67-8.31-26.5-16a59.91,59.91,0,0,1-14.11-17.79Q96.2,114.07,96.2,100.5q0-25.57,17.34-40.21t47.92-14.64a113.23,113.23,0,0,1,28.67,3.56,197.83,197.83,0,0,1,28.55,10l-2,4.77a31.21,31.21,0,0,1-36.51,18.22l-.21,0a82.09,82.09,0,0,0-19.84-2.5q-11.61,0-17.8,5.4a17.84,17.84,0,0,0-6.19,14.11,17.44,17.44,0,0,0,2.5,9.42,27.36,27.36,0,0,0,8,7.78q5.46,3.77,25.9,13.51,27,12.93,37.05,25.91T219.6,187.64Z"/></g></g></svg>