<svg id="Слой_1" data-name="Слой 1" xmlns="http://www.w3.org/2000/svg" viewBox="0 0 894.95 219.2"><defs><style>.cls-1{fill:#2b8dff;}</style></defs><path class="cls-1" d="M147.65,277.46a47.84,47.84,0,0,1-7.66,26.8q-7.65,11.7-22.08,18.2T84.06,329a137.58,137.58,0,0,1-27.2-2.27,91.86,91.86,0,0,1-12.21-3.48A16.23,16.23,0,0,1,34,307.9v-4C34,293,44.47,285,54.82,288.2c1.74.54,3.5,1.05,5.26,1.52a97.46,97.46,0,0,0,24.86,3.61q9.77,0,14.32-3.39a10.4,10.4,0,0,0,4.55-8.71A9.61,9.61,0,0,0,102,275.4a21.53,21.53,0,0,0-5.88-5q-4-2.55-21.59-10.43-15.87-7.22-23.81-14A43,43,0,0,1,38.94,230.4q-3.82-8.78-3.83-20.76,0-22.41,16.32-35t44.83-12.54A118.19,118.19,0,0,1,131,167.53a16.37,16.37,0,0,1,10.56,21.66l-1.32,3.35a16.32,16.32,0,0,1-20.48,9.31q-13.78-4.64-24.81-4.64-8.55,0-12.43,3a9.07,9.07,0,0,0-3.88,7.43q0,4.79,4.94,8.55T110.36,230q21,9.44,29.13,20.26T147.65,277.46Z" transform="translate(-34 -162.14)"/><path class="cls-1" d="M288.32,326.73a12.56,12.56,0,0,1-12.22-9.66L264.19,266.8l-3.33-18.09-2.22-14.54H258q-5.43,31.08-7.32,39.18l-10.46,43.74A12.57,12.57,0,0,1,228,326.73H201.86a12.57,12.57,0,0,1-12.12-9.25L162.3,216.85A12.56,12.56,0,0,1,174.42,201h16.1a12.56,12.56,0,0,1,12.29,10l8.1,38.31q4.89,24.87,5.66,41.29h.67q.33-10.21,6.1-38.84l9.42-41A12.56,12.56,0,0,1,245,201h27.72A12.57,12.57,0,0,1,285,211l8.58,41.37q5.1,24.54,6.44,38.18h.66q.66-8.43,2.22-21a181,181,0,0,1,3.44-20.26l8.86-38.53A12.56,12.56,0,0,1,327.46,201h15.37a12.55,12.55,0,0,1,12.11,15.88L327.32,317.5a12.57,12.57,0,0,1-12.11,9.23Z" transform="translate(-34 -162.14)"/><path class="cls-1" d="M464.85,326.73a9.33,9.33,0,0,1-8.35-5.16l-5.75-11.49h-.88Q441.1,321,432,325t-23.53,4q-17.76,0-28-10.65t-10.21-30q0-20.08,14-29.91t40.51-11l21-.67v-1.77q0-15.54-15.32-15.54-11,0-26.77,6a9.4,9.4,0,0,1-11.89-5.1l-5.1-11.64A9.37,9.37,0,0,1,392,206.09q19.49-7.32,46.44-7.32,24.19,0,37.45,12t13.27,33.52v73.12a9.35,9.35,0,0,1-9.35,9.34Zm-38-28.41a19.57,19.57,0,0,0,13.49-5,16.6,16.6,0,0,0,5.6-13h0a9.34,9.34,0,0,0-9.75-9.33H436q-21.42.78-21.42,15.76Q414.57,298.32,426.89,298.32Z" transform="translate(-34 -162.14)"/><path class="cls-1" d="M594.15,329a43.79,43.79,0,0,1-17.09-3.16q-7.56-3.17-15-11.38h-2q2,13.21,2,16.43v29.6a20.9,20.9,0,0,1-20.9,20.9h-1.59a20.9,20.9,0,0,1-20.9-20.9V221.89a20.9,20.9,0,0,1,20.9-20.9h0a20.9,20.9,0,0,1,19.53,13.44l1,2.54h2q12.1-18.21,33.41-18.2,20.87,0,32.74,17.31t11.88,47.5q0,30.42-12.38,47.89T594.15,329Zm-14.54-96.11q-9.54,0-13.37,6.82t-4.17,20.26v3.44q0,16.2,4.33,23.42T580.05,294q8.33,0,12.1-7.16t3.77-23.69q0-16.2-3.77-23.25T579.61,232.84Z" transform="translate(-34 -162.14)"/><path class="cls-1" d="M740.32,329a43.79,43.79,0,0,1-17.09-3.16q-7.56-3.17-15-11.38h-2q2,13.21,2,16.43v32.75a17.75,17.75,0,0,1-17.74,17.75h-7.91a17.75,17.75,0,0,1-17.74-17.75V218.73A17.74,17.74,0,0,1,682.59,201h5.33A17.74,17.74,0,0,1,704.5,212.4l1.75,4.57h2q12.1-18.21,33.41-18.2,20.86,0,32.74,17.31t11.88,47.5q0,30.42-12.38,47.89T740.32,329Zm-14.54-96.11q-9.54,0-13.37,6.82t-4.17,20.26v3.44q0,16.2,4.33,23.42T726.22,294q8.32,0,12.1-7.16t3.77-23.69q0-16.2-3.77-23.25T725.78,232.84Z" transform="translate(-34 -162.14)"/><path class="cls-1" d="M815.07,201h16.72a13,13,0,0,1,12.51,9.35l18.55,62.79A71.93,71.93,0,0,1,865,286.78h.89a74,74,0,0,1,2.66-13.43l19.06-63.09A13,13,0,0,1,900.06,201h15.83a13,13,0,0,1,12.23,17.59L884.93,334.72q-9.54,25.53-23.47,36.08t-36.35,10.54c-1.83,0-3.68-.07-5.54-.19a13.09,13.09,0,0,1-12.22-13V360a13.3,13.3,0,0,1,13.28-13.26h.15a21.82,21.82,0,0,0,10.1-2.22,23,23,0,0,0,7.55-6.27,40.07,40.07,0,0,0,4.54-7.81,13.19,13.19,0,0,0,.34-10.47L803,218.87A13,13,0,0,1,815.07,201Z" transform="translate(-34 -162.14)"/></svg>